<svg width="48" height="48" viewBox="0 0 48 48" fill="none" xmlns="http://www.w3.org/2000/svg">
<rect width="48" height="48" rx="12" fill="#4371B6" fill-opacity="0.1"/>
<g clip-path="url(#clip0_1212_7131)">
<path d="M35.7748 8.24951H17.9578C15.6339 8.24951 13.7324 10.1509 13.7324 12.4749V13.9126H29.8494C32.1733 13.9126 34.0747 15.8141 34.0747 18.138V28.6722H35.7748C38.0987 28.6722 40.0002 26.7708 40.0002 24.4468V12.4749C40.0002 10.1509 38.0987 8.24951 35.7748 8.24951Z" fill="#27AE60"/>
<path d="M32.779 13.7192H14.962C14.5453 13.7191 14.1308 13.7812 13.7324 13.9034V13.9124H29.8494C32.1733 13.9124 34.0747 15.8139 34.0747 18.1378V28.672H35.7747C36.1915 28.6721 36.6059 28.61 37.0043 28.4879V17.9446C37.0044 15.6207 35.1029 13.7192 32.779 13.7192Z" fill="#219653"/>
<path d="M30.0424 13.7192H12.2254C9.90144 13.7192 8 15.6207 8 17.9446V29.9165C8 32.2404 9.90144 34.1419 12.2254 34.1419H22.9189C23.3773 34.1419 23.7196 34.5685 23.6147 35.0147C23.3311 36.2221 22.8972 37.4988 22.2557 38.8076C21.9676 39.3954 22.6229 39.993 23.1796 39.6485C24.789 38.6524 27.0789 36.9854 29.0073 34.6287C29.2608 34.3189 29.6421 34.1418 30.0424 34.1418C32.3663 34.1418 34.2677 32.2404 34.2677 29.9164V17.9446C34.2677 15.6207 32.3663 13.7192 30.0424 13.7192Z" fill="#FF772D"/>
<path d="M26.3511 35.0147C26.4559 34.5684 26.1137 34.1419 25.6553 34.1419H22.9189C23.3773 34.1419 23.7195 34.5684 23.6147 35.0147C23.3311 36.2221 22.8972 37.4988 22.2557 38.8076C21.9676 39.3954 22.6229 39.993 23.1796 39.6485C23.9009 39.2017 24.5999 38.7197 25.2739 38.2042C25.7634 37.1066 26.1113 36.0357 26.3511 35.0147ZM10.7364 29.9165V17.9446C10.7364 15.6207 12.6379 13.7192 14.9618 13.7192H12.2254C9.90144 13.7192 8 15.6207 8 17.9446V29.9165C8 32.2404 9.90144 34.1419 12.2254 34.1419H14.9618C12.6378 34.1419 10.7364 32.2405 10.7364 29.9165Z" fill="#FF6A1A"/>
<path d="M13.8572 25.6768C14.6316 25.6768 15.2593 25.0491 15.2593 24.2747C15.2593 23.5003 14.6316 22.8726 13.8572 22.8726C13.0828 22.8726 12.4551 23.5003 12.4551 24.2747C12.4551 25.0491 13.0828 25.6768 13.8572 25.6768Z" fill="#DFEBFA"/>
<path d="M18.3865 25.6768C19.1609 25.6768 19.7886 25.0491 19.7886 24.2747C19.7886 23.5003 19.1609 22.8726 18.3865 22.8726C17.6121 22.8726 16.9844 23.5003 16.9844 24.2747C16.9844 25.0491 17.6121 25.6768 18.3865 25.6768Z" fill="#DFEBFA"/>
<path d="M22.9138 25.6768C23.6882 25.6768 24.316 25.0491 24.316 24.2747C24.316 23.5003 23.6882 22.8726 22.9138 22.8726C22.1395 22.8726 21.5117 23.5003 21.5117 24.2747C21.5117 25.0491 22.1395 25.6768 22.9138 25.6768Z" fill="#DFEBFA"/>
<path d="M27.4431 25.6768C28.2175 25.6768 28.8453 25.0491 28.8453 24.2747C28.8453 23.5003 28.2175 22.8726 27.4431 22.8726C26.6688 22.8726 26.041 23.5003 26.041 24.2747C26.041 25.0491 26.6688 25.6768 27.4431 25.6768Z" fill="#DFEBFA"/>
<path d="M13.8572 24.2747C13.8572 23.7558 14.1393 23.3031 14.5583 23.0606C14.3453 22.9372 14.1034 22.8723 13.8572 22.8726C13.0828 22.8726 12.4551 23.5003 12.4551 24.2747C12.4551 25.0491 13.0828 25.6768 13.8572 25.6768C14.1034 25.6771 14.3453 25.6122 14.5583 25.4887C14.1393 25.2463 13.8572 24.7936 13.8572 24.2747ZM18.386 24.2747C18.386 23.7558 18.6681 23.3031 19.087 23.0606C18.874 22.9372 18.6321 22.8723 18.386 22.8726C17.6116 22.8726 16.9838 23.5003 16.9838 24.2747C16.9838 25.0491 17.6116 25.6768 18.386 25.6768C18.6415 25.6768 18.8807 25.6081 19.087 25.4887C18.668 25.2463 18.386 24.7936 18.386 24.2747ZM22.9146 24.2747C22.9146 23.7558 23.1968 23.3031 23.6157 23.0606C23.4027 22.9372 23.1608 22.8723 22.9146 22.8726C22.1403 22.8726 21.5125 23.5003 21.5125 24.2747C21.5125 25.0491 22.1403 25.6768 22.9146 25.6768C23.1608 25.6771 23.4027 25.6122 23.6157 25.4887C23.1968 25.2463 22.9146 24.7936 22.9146 24.2747ZM27.4434 24.2747C27.4434 23.7558 27.7255 23.3031 28.1445 23.0606C27.9314 22.9372 27.6896 22.8723 27.4434 22.8726C26.669 22.8726 26.0413 23.5003 26.0413 24.2747C26.0413 25.0491 26.669 25.6768 27.4434 25.6768C27.6896 25.6771 27.9315 25.6122 28.1445 25.4887C27.7255 25.2463 27.4434 24.7936 27.4434 24.2747Z" fill="white"/>
</g>
<defs>
<clipPath id="clip0_1212_7131">
<rect width="32" height="32" fill="white" transform="translate(8 8)"/>
</clipPath>
</defs>
</svg>
