<svg width="48" height="48" viewBox="0 0 48 48" fill="none" xmlns="http://www.w3.org/2000/svg">
<rect width="48" height="48" rx="12" fill="#4371B6" fill-opacity="0.1"/>
<path fill-rule="evenodd" clip-rule="evenodd" d="M11.6432 12.8497C13.4471 11.0459 15.8111 10.144 18.1751 10.144C20.2414 10.144 22.3078 10.8331 24 12.2112C25.6922 10.8331 27.7586 10.144 29.8249 10.144C32.1889 10.144 34.553 11.046 36.3568 12.8497C38.1606 14.6535 39.0625 17.0177 39.0625 19.3817C39.0625 21.7457 38.1606 24.1098 36.3568 25.9135L24.7071 37.5633C24.3166 37.9538 23.6834 37.9538 23.293 37.5633L11.6432 25.9135C9.83944 24.1098 8.9375 21.7457 8.9375 19.3817C8.9375 17.0177 9.83944 14.6535 11.6432 12.8497Z" fill="#FF772D"/>
<path fill-rule="evenodd" clip-rule="evenodd" d="M33.5163 15.0267C35.1587 16.6691 35.98 18.8217 35.98 20.9743C35.98 23.1269 35.1587 25.2795 33.5163 26.9219L23.0839 37.3543L23.293 37.5634C23.6834 37.9539 24.3165 37.9539 24.707 37.5634L36.3568 25.9136C38.1605 24.1098 39.0625 21.7457 39.0625 19.3817C39.0625 17.0177 38.1605 14.6535 36.3567 12.8497C34.5529 11.0459 32.1888 10.144 29.8248 10.144C27.7585 10.144 25.6922 10.8331 24 12.2112C22.3078 10.8331 20.2414 10.144 18.1751 10.144C15.8111 10.144 13.447 11.046 11.6432 12.8497C10.1343 14.3587 9.25645 16.2597 9.00977 18.2249C9.41283 17.0565 10.0807 15.9594 11.0134 15.0267C12.6558 13.3842 14.8085 12.563 16.961 12.563C18.8425 12.563 20.724 13.1904 22.2648 14.4452C23.8057 13.1904 25.6872 12.563 27.5686 12.563C29.7211 12.563 31.8738 13.3842 33.5163 15.0267Z" fill="#FF6714"/>
</svg>
