<svg width="48" height="48" viewBox="0 0 48 48" fill="none" xmlns="http://www.w3.org/2000/svg">
<rect width="48" height="48" rx="12" fill="#4371B6" fill-opacity="0.1"/>
<g clip-path="url(#clip0_1212_7088)">
<path d="M39.8312 23.4562C39.5312 23.0625 32.6625 13.6875 24 13.6875C15.3375 13.6875 8.46884 23.0625 8.16884 23.4562C7.94372 23.775 7.94372 24.225 8.16884 24.5437C8.46878 24.9375 15.3376 34.3125 24 34.3125C32.6624 34.3125 39.5312 24.9375 39.8312 24.5437C40.0563 24.225 40.0563 23.775 39.8312 23.4562Z" fill="#E1E4FB"/>
<path d="M39.8312 24.5437C39.5312 24.9375 32.6625 34.3125 24 34.3125V13.6875C32.6625 13.6875 39.5312 23.0625 39.8312 23.4562C40.0563 23.7751 40.0563 24.225 39.8312 24.5437Z" fill="#C5C9F7"/>
<path d="M24 17.4375C20.3812 17.4375 17.4375 20.3812 17.4375 24C17.4375 27.6187 20.3812 30.5625 24 30.5625C27.6187 30.5625 30.5625 27.6187 30.5625 24C30.5625 20.3812 27.6187 17.4375 24 17.4375Z" fill="#FF772D"/>
<path d="M30.5625 24C30.5625 27.6187 27.6188 30.5625 24 30.5625V17.4375C27.6188 17.4375 30.5625 20.3813 30.5625 24Z" fill="#FF772D"/>
<path d="M24 26.8125C22.4491 26.8125 21.1875 25.5509 21.1875 24C21.1875 22.4491 22.4491 21.1875 24 21.1875C25.5509 21.1875 26.8125 22.4491 26.8125 24C26.8125 25.5509 25.5509 26.8125 24 26.8125Z" fill="#0059AA"/>
<path d="M26.8125 24C26.8125 22.4491 25.5509 21.1875 24 21.1875V26.8125C25.5509 26.8125 26.8125 25.5509 26.8125 24Z" fill="#08469C"/>
<path d="M24.9375 24C25.4553 24 25.875 23.5803 25.875 23.0625C25.875 22.5447 25.4553 22.125 24.9375 22.125C24.4197 22.125 24 22.5447 24 23.0625C24 23.5803 24.4197 24 24.9375 24Z" fill="#C5C9F7"/>
</g>
<defs>
<clipPath id="clip0_1212_7088">
<rect width="32" height="32" fill="white" transform="translate(8 8)"/>
</clipPath>
</defs>
</svg>
