<svg width="48" height="48" viewBox="0 0 48 48" fill="none" xmlns="http://www.w3.org/2000/svg">
<rect width="48" height="48" rx="12" fill="#4371B6" fill-opacity="0.1"/>
<g clip-path="url(#clip0_1216_7282)">
<path fill-rule="evenodd" clip-rule="evenodd" d="M14.6955 8.96191H33.3044C34.8889 8.96191 36.3287 9.60935 37.3718 10.6525C38.415 11.6957 39.0625 13.1355 39.0625 14.72V33.2796C39.0625 34.8641 38.415 36.3039 37.3719 37.347C36.3288 38.3902 34.8889 39.0376 33.3045 39.0376H14.6955C13.111 39.0376 11.6712 38.3901 10.6281 37.347C9.585 36.3039 8.9375 34.8641 8.9375 33.2796V14.72C8.9375 13.1355 9.585 11.6957 10.6281 10.6526C11.6713 9.60941 13.1111 8.96191 14.6955 8.96191Z" fill="#E6E6E6"/>
<path fill-rule="evenodd" clip-rule="evenodd" d="M22.5918 22.3489L28.9011 25.9915C29.254 26.1952 29.534 26.4759 29.7281 26.811L29.7298 26.81C29.9255 27.149 30.03 27.5324 30.03 27.9374C30.03 28.3423 29.9255 28.7257 29.7298 29.0647C29.5365 29.3994 29.2572 29.6797 28.905 29.8831L22.5957 33.5257C22.2391 33.7316 21.8555 33.8346 21.4707 33.8346C21.086 33.8346 20.7023 33.7316 20.3457 33.5257C19.9935 33.3224 19.7141 33.042 19.5208 32.7073C19.3251 32.3684 19.2207 31.9849 19.2207 31.58H19.2246V24.2947H19.2207C19.2207 23.8897 19.3251 23.5063 19.5208 23.1674C19.7141 22.8327 19.9934 22.5523 20.3457 22.3489C20.3693 22.3352 20.3932 22.3227 20.4173 22.3112C20.7544 22.1304 21.1126 22.04 21.4706 22.04C21.853 22.04 22.2353 22.143 22.5918 22.3489Z" fill="#FF772D"/>
<path fill-rule="evenodd" clip-rule="evenodd" d="M14.696 8.96191H33.3049C34.8894 8.96191 36.3292 9.60935 37.3723 10.6525C38.4155 11.6957 39.063 13.1355 39.063 14.72V33.2796C39.063 34.8641 38.4155 36.3039 37.3724 37.347C36.8902 37.8295 36.3266 38.2231 35.7076 38.5098C36.4925 37.5255 36.963 36.2802 36.963 34.9296V16.37C36.963 14.7855 36.3155 13.3457 35.2724 12.3026C34.2292 11.2594 32.7894 10.612 31.205 10.612H12.596C11.7663 10.6113 10.9464 10.7914 10.1934 11.1398C10.3292 10.9694 10.4745 10.8067 10.6286 10.6526C11.6718 9.60941 13.1115 8.96191 14.696 8.96191Z" fill="#CFCFCF"/>
<path fill-rule="evenodd" clip-rule="evenodd" d="M21.3914 23.2489L27.7006 26.8915C28.0535 27.0952 28.3336 27.3759 28.5276 27.711L28.5293 27.71C28.725 28.0489 28.8295 28.4324 28.8295 28.8373C28.8295 29.2422 28.7251 29.6257 28.5294 29.9646C28.4858 30.0401 28.4377 30.113 28.3854 30.1827L28.9045 29.883C29.2568 29.6797 29.5361 29.3993 29.7293 29.0646C29.925 28.7257 30.0295 28.3422 30.0295 27.9373C30.0295 27.5324 29.925 27.1489 29.7293 26.81L29.7276 26.811C29.5335 26.4759 29.2535 26.1952 28.9006 25.9915L22.5914 22.3489C22.2348 22.143 21.8524 22.04 21.4703 22.04C21.1122 22.04 20.7541 22.1305 20.417 22.3112C20.3928 22.3227 20.3689 22.3352 20.3454 22.3489C20.0354 22.5279 19.7818 22.7665 19.5938 23.0493C19.8121 22.9772 20.0405 22.9403 20.2704 22.94C20.6525 22.94 21.0348 23.043 21.3914 23.2489Z" fill="#FF772D"/>
<path fill-rule="evenodd" clip-rule="evenodd" d="M8.9375 16.8369H17.1543L12.4314 9.42791C13.0856 9.14606 13.7867 8.98919 14.4986 8.96541L19.5163 16.8369H24.6588L19.6389 8.96198H22.0009L27.0208 16.8369H32.1632L27.1433 8.96191H29.5053L34.5252 16.8369H39.0625V18.8369H8.9375V16.8369Z" fill="#FF772D"/>
</g>
<defs>
<clipPath id="clip0_1216_7282">
<rect width="32" height="32" fill="white" transform="translate(8 8)"/>
</clipPath>
</defs>
</svg>
