<svg width="48" height="48" viewBox="0 0 48 48" fill="none" xmlns="http://www.w3.org/2000/svg">
<rect width="48" height="48" rx="12" fill="#4371B6" fill-opacity="0.1"/>
<g clip-path="url(#clip0_1212_7188)">
<path d="M17 27.9062H12C11.8674 27.9062 11.7402 27.9589 11.6464 28.0527C11.5527 28.1465 11.5 28.2736 11.5 28.4062V39.4062C11.5 39.5389 11.5527 39.666 11.6464 39.7598C11.7402 39.8536 11.8674 39.9062 12 39.9062H17C17.1326 39.9062 17.2598 39.8536 17.3536 39.7598C17.4473 39.666 17.5 39.5389 17.5 39.4062V28.4062C17.5 28.2736 17.4473 28.1465 17.3536 28.0527C17.2598 27.9589 17.1326 27.9062 17 27.9062Z" fill="#FF772D"/>
<path d="M13 39.4062V28.4062C13 28.2736 13.0527 28.1465 13.1464 28.0527C13.2402 27.9589 13.3674 27.9062 13.5 27.9062H12C11.8674 27.9062 11.7402 27.9589 11.6464 28.0527C11.5527 28.1465 11.5 28.2736 11.5 28.4062V39.4062C11.5 39.5389 11.5527 39.666 11.6464 39.7598C11.7402 39.8536 11.8674 39.9062 12 39.9062H13.5C13.3674 39.9062 13.2402 39.8536 13.1464 39.7598C13.0527 39.666 13 39.5389 13 39.4062ZM26.5 25.4062H21.5C21.3674 25.4062 21.2402 25.4589 21.1464 25.5527C21.0527 25.6465 21 25.7736 21 25.9062V39.4062C21 39.5389 21.0527 39.666 21.1464 39.7598C21.2402 39.8536 21.3674 39.9062 21.5 39.9062H26.5C26.6326 39.9062 26.7598 39.8536 26.8536 39.7598C26.9473 39.666 27 39.5389 27 39.4062V25.9062C27 25.7736 26.9473 25.6465 26.8536 25.5527C26.7598 25.4589 26.6326 25.4062 26.5 25.4062Z" fill="#FF772D"/>
<path d="M22.5 39.4062V25.9062C22.5 25.7736 22.5527 25.6465 22.6464 25.5527C22.7402 25.4589 22.8674 25.4062 23 25.4062H21.5C21.3674 25.4062 21.2402 25.4589 21.1464 25.5527C21.0527 25.6465 21 25.7736 21 25.9062V39.4062C21 39.5389 21.0527 39.666 21.1464 39.7598C21.2402 39.8536 21.3674 39.9062 21.5 39.9062H23C22.8674 39.9062 22.7402 39.8536 22.6464 39.7598C22.5527 39.666 22.5 39.5389 22.5 39.4062ZM36 19.9062H31C30.8674 19.9062 30.7402 19.9589 30.6464 20.0527C30.5527 20.1465 30.5 20.2736 30.5 20.4062V39.4062C30.5 39.5389 30.5527 39.666 30.6464 39.7598C30.7402 39.8536 30.8674 39.9062 31 39.9062H36C36.1326 39.9062 36.2598 39.8536 36.3536 39.7598C36.4473 39.666 36.5 39.5389 36.5 39.4062V20.4062C36.5 20.2736 36.4473 20.1465 36.3536 20.0527C36.2598 19.9589 36.1326 19.9062 36 19.9062Z" fill="#FF772D"/>
<path d="M32 39.4062V20.4062C32 20.2736 32.0527 20.1465 32.1464 20.0527C32.2402 19.9589 32.3674 19.9062 32.5 19.9062H31C30.8674 19.9062 30.7402 19.9589 30.6464 20.0527C30.5527 20.1465 30.5 20.2736 30.5 20.4062V39.4062C30.5 39.5389 30.5527 39.666 30.6464 39.7598C30.7402 39.8536 30.8674 39.9062 31 39.9062H32.5C32.3674 39.9062 32.2402 39.8536 32.1464 39.7598C32.0527 39.666 32 39.5389 32 39.4062Z" fill="#FF772D"/>
<path d="M39.5 39.9062H8.5C8.36739 39.9062 8.24021 39.8536 8.14645 39.7598C8.05268 39.666 8 39.5389 8 39.4062C8 39.2736 8.05268 39.1465 8.14645 39.0527C8.24021 38.9589 8.36739 38.9062 8.5 38.9062H39.5C39.6326 38.9062 39.7598 38.9589 39.8536 39.0527C39.9473 39.1465 40 39.2736 40 39.4062C40 39.5389 39.9473 39.666 39.8536 39.7598C39.7598 39.8536 39.6326 39.9062 39.5 39.9062Z" fill="#AAB4BD"/>
<path d="M38.1618 8.3441C38.0555 8.25025 37.9305 8.18008 37.795 8.13825C37.6595 8.09642 37.5167 8.08388 37.376 8.10148L33.376 8.60148C32.8279 8.66998 32.4392 9.16979 32.5077 9.71779C32.5762 10.2659 33.0766 10.6542 33.624 10.586L35.1282 10.398C30.0405 16.7285 23.785 19.9553 19.2964 21.5644C14.0563 23.4429 10.009 23.593 9.96872 23.5942C9.41716 23.6114 8.98372 24.0723 9.00047 24.624C9.01684 25.1657 9.46116 25.5937 9.99941 25.5937C10.0097 25.5937 10.0199 25.5936 10.0302 25.5933C10.2051 25.588 14.3759 25.4409 19.8981 23.4732C23.1374 22.319 26.1727 20.7729 28.9194 18.8778C31.7692 16.9117 34.311 14.5632 36.5 11.881V13.0937C36.5 13.646 36.9477 14.0937 37.5 14.0937C38.0523 14.0937 38.5 13.646 38.5 13.0937V9.09373C38.5 8.95194 38.4698 8.81178 38.4115 8.68254C38.3532 8.5533 38.2681 8.43793 38.1618 8.3441Z" fill="#55697A"/>
</g>
<defs>
<clipPath id="clip0_1212_7188">
<rect width="32" height="32" fill="white" transform="translate(8 8)"/>
</clipPath>
</defs>
</svg>
