<svg width="48" height="48" viewBox="0 0 48 48" fill="none" xmlns="http://www.w3.org/2000/svg">
<rect width="48" height="48" rx="12" fill="#4371B6" fill-opacity="0.1"/>
<g clip-path="url(#clip0_1212_7109)">
<mask id="mask0_1212_7109" style="mask-type:luminance" maskUnits="userSpaceOnUse" x="8" y="8" width="32" height="32">
<path d="M8 8.00009H39.9999V40H8V8.00009Z" fill="white"/>
</mask>
<g mask="url(#mask0_1212_7109)">
<path d="M35.2499 40H9C8.48225 40 8.0625 39.5803 8.0625 39.0625V35.9375C8.0625 32.1813 9.52525 28.6499 12.1813 25.9939C14.8374 23.3378 18.3687 21.8751 22.125 21.8751C25.8812 21.8751 29.4126 23.3378 32.0686 25.9939C34.7247 28.6499 36.1874 32.1813 36.1874 35.9375V39.0625C36.1874 39.5803 35.7677 40 35.2499 40Z" fill="#27AE60"/>
<path d="M32.0687 25.9939C29.4126 23.3378 25.8812 21.8751 22.125 21.8751V40H35.25C35.7678 40 36.1875 39.5803 36.1875 39.0625V35.9375C36.1875 32.1813 34.7247 28.6499 32.0687 25.9939Z" fill="#219653"/>
<path d="M22.125 23.75C17.7827 23.75 14.25 20.2173 14.25 15.875C14.25 11.5327 17.7827 8.00005 22.125 8.00005C26.4673 8.00005 30 11.5327 30 15.875C30 20.2173 26.4673 23.75 22.125 23.75Z" fill="#FFD5B6"/>
<path d="M33.375 34.375C29.7564 34.375 26.8125 31.4311 26.8125 27.8125C26.8125 24.194 29.7564 21.25 33.375 21.25C36.9935 21.25 39.9375 24.194 39.9375 27.8125C39.9375 31.4311 36.9935 34.375 33.375 34.375Z" fill="#FF772D"/>
<path d="M35.25 26.875H34.3125V25.9375C34.3125 25.4198 33.8927 25 33.375 25C32.8572 25 32.4375 25.4198 32.4375 25.9375V26.875H31.5C30.9822 26.875 30.5625 27.2948 30.5625 27.8125C30.5625 28.3303 30.9822 28.75 31.5 28.75H32.4375V29.6875C32.4375 30.2053 32.8572 30.625 33.375 30.625C33.8927 30.625 34.3125 30.2053 34.3125 29.6875V28.75H35.25C35.7677 28.75 36.1875 28.3303 36.1875 27.8125C36.1875 27.2948 35.7677 26.875 35.25 26.875Z" fill="#5D6787"/>
<path d="M22.125 8.00005V23.75C26.4673 23.75 30 20.2173 30 15.875C30 11.5327 26.4673 8.00005 22.125 8.00005Z" fill="#FFC896"/>
</g>
</g>
<defs>
<clipPath id="clip0_1212_7109">
<rect width="32" height="32" fill="white" transform="translate(8 8)"/>
</clipPath>
</defs>
</svg>
