<svg width="48" height="48" viewBox="0 0 48 48" fill="none" xmlns="http://www.w3.org/2000/svg">
<rect width="48" height="48" rx="12" fill="#4371B6" fill-opacity="0.1"/>
<path d="M11.1847 21.5689L36.8463 13.4333C37.2469 13.301 37.5908 13.0648 37.3886 12.3844L36.9105 10.8783C36.8048 10.5425 36.6338 10.2308 36.4073 9.9613C36.1809 9.69174 35.9034 9.46956 35.5909 9.3075C35.2783 9.14543 34.9369 9.04668 34.5861 9.01691C34.2353 8.98713 33.882 9.02692 33.5467 9.13398L10.8709 16.3228C10.5351 16.4285 10.2235 16.5995 9.95397 16.826C9.68442 17.0524 9.46223 17.3299 9.30017 17.6424C9.13811 17.955 9.03936 18.2964 9.00958 18.6472C8.97981 18.998 9.01959 19.3513 9.12666 19.6866L9.56509 21.07C9.7484 21.6123 10.1415 21.9015 11.1847 21.5708V21.5689Z" fill="#676767"/>
<path d="M32.136 13.2462L14.4021 18.9685C14.1551 18.6369 13.8426 18.3594 13.4841 18.1534C13.1256 17.9473 12.7286 17.8169 12.3177 17.7704C10.9891 17.6267 10.7737 19.6205 12.1022 19.7622C12.9715 19.9701 13.2777 20.5238 13.4856 20.864L33.3984 14.552C33.6063 13.7394 32.788 13.0515 32.136 13.2462Z" fill="#4D4D4D"/>
<path d="M9.85547 23.0731V36.3281C9.85547 37.8135 11.0517 39.0079 12.5371 39.0079H36.3221C37.8075 39.0079 39.0038 37.8135 39.0038 36.3281V23.1373C39.0038 22.3625 38.4028 21.582 37.5222 21.582H11.3484C10.5887 21.582 9.85547 21.9619 9.85547 23.0731Z" fill="#FF772D"/>
<path d="M15.297 25.8589C13.9609 25.8589 13.9609 27.8621 15.297 27.8621H39.0518V25.8589H15.297Z" fill="#FF5C03"/>
<path d="M39.053 26.2402L39.0492 23.1636C39.0492 22.2906 38.3708 21.6064 37.5676 21.6064H11.3523C10.3602 21.6064 9.85938 22.2036 9.85938 23.0994V26.2402H39.053Z" fill="#676767"/>
<path d="M14.0552 21.7107C14.0552 22.0426 13.9898 22.3713 13.8628 22.678C13.7358 22.9847 13.5496 23.2633 13.3149 23.498C13.0802 23.7327 12.8015 23.9189 12.4949 24.0459C12.1882 24.1729 11.8595 24.2383 11.5276 24.2383C11.1957 24.2383 10.867 24.1729 10.5603 24.0459C10.2537 23.9189 9.97503 23.7327 9.74032 23.498C9.50561 23.2633 9.31943 22.9847 9.1924 22.678C9.06538 22.3713 9 22.0426 9 21.7107C9 21.0404 9.2663 20.3974 9.74032 19.9234C10.2143 19.4494 10.8572 19.1831 11.5276 19.1831C12.198 19.1831 12.8409 19.4494 13.3149 19.9234C13.7889 20.3974 14.0552 21.0404 14.0552 21.7107Z" fill="#FF772D"/>
<path d="M19.2162 21.6067L16.0754 26.2405H22.5763L25.0784 21.6067H19.2162ZM18.98 13.7659L12.7871 15.7313L18.7721 19.1877L24.3924 17.4057L18.98 13.7659ZM30.4133 21.6067L28.0756 26.2405H34.0474L36.334 21.6067H30.4133ZM30.95 9.97119L24.7325 11.9423L30.0542 15.6104L35.9372 13.747L30.95 9.97119Z" fill="#D1DCFF"/>
<path d="M22.723 16.2829L16.9629 18.1406L18.7733 19.1876L24.3936 17.4055L22.723 16.2829ZM32.1361 13.246L28.3792 14.4574L30.0535 15.6102L33.3985 14.5519C33.6064 13.8035 32.8429 13.04 32.1361 13.246Z" fill="#BFD2FF"/>
<path d="M12.7363 31.5378C12.0541 31.5226 12.0541 32.5545 12.7363 32.5394H26.5923C27.2745 32.5545 27.2745 31.5226 26.5923 31.5378H12.7363ZM18.3263 34.5047C16.4535 34.5085 14.5599 34.5047 12.6871 34.5047C12.073 34.5822 12.1164 35.4874 12.7363 35.5045H18.2715C18.9594 35.5649 19.0161 34.5218 18.3263 34.5047Z" fill="#676767"/>
</svg>
