<svg width="48" height="48" viewBox="0 0 48 48" fill="none" xmlns="http://www.w3.org/2000/svg">
<rect width="48" height="48" rx="12" fill="#4371B6" fill-opacity="0.1"/>
<path d="M35 27H13C11.8954 27 11 26.1046 11 25V11C11 9.89544 11.8954 9 13 9H35C36.1046 9 37 9.89544 37 11V25C37 26.1046 36.1046 27 35 27Z" fill="#219653"/>
<path d="M35 25H13C11.8954 25 11 24.1046 11 23V11C11 9.89544 11.8954 9 13 9H35C36.1046 9 37 9.89544 37 11V23C37 24.1046 36.1046 25 35 25Z" fill="#27AE60"/>
<path d="M34.5 23H13.5C13.3674 23 13.2402 22.9473 13.1464 22.8536C13.0527 22.7598 13 22.6326 13 22.5V11.5C13 11.3674 13.0527 11.2402 13.1464 11.1464C13.2402 11.0527 13.3674 11 13.5 11H34.5C34.6326 11 34.7598 11.0527 34.8536 11.1464C34.9473 11.2402 35 11.3674 35 11.5V22.5C35 22.6326 34.9473 22.7598 34.8536 22.8536C34.7598 22.9473 34.6326 23 34.5 23Z" fill="#463C4B"/>
<path d="M24 25C28.4183 25 32 21.4183 32 17C32 12.5817 28.4183 9 24 9C19.5817 9 16 12.5817 16 17C16 21.4183 19.5817 25 24 25Z" fill="#D7E6F0"/>
<path d="M16.5 17.5C16.6326 17.5 16.7598 17.4473 16.8536 17.3536C16.9473 17.2598 17 17.1326 17 17C17 13.1402 20.1402 10 24 10C24.1326 10 24.2598 9.94732 24.3536 9.85355C24.4473 9.75979 24.5 9.63261 24.5 9.5C24.5 9.36739 24.4473 9.24021 24.3536 9.14645C24.2598 9.05268 24.1326 9 24 9C19.5817 9 16 12.5817 16 17C16 17.1326 16.0527 17.2598 16.1464 17.3536C16.2402 17.4473 16.3674 17.5 16.5 17.5Z" fill="white"/>
<path d="M28.8429 16.3584L21.3429 12.3584C21.2321 12.2994 21.1079 12.27 20.9824 12.2732C20.8568 12.2764 20.7343 12.312 20.6266 12.3766C20.5189 12.4412 20.4298 12.5326 20.3679 12.6419C20.306 12.7511 20.2735 12.8745 20.2734 13.0001V21.0001C20.2735 21.193 20.3501 21.3779 20.4865 21.5143C20.6229 21.6507 20.8078 21.7273 21.0007 21.7274C21.1181 21.7274 21.2358 21.6989 21.3429 21.6418L28.8429 17.6418C28.9593 17.5798 29.0565 17.4873 29.1244 17.3743C29.1922 17.2613 29.228 17.1319 29.228 17.0001C29.228 16.8683 29.1922 16.739 29.1244 16.6259C29.0565 16.5129 28.9593 16.4204 28.8429 16.3584Z" fill="#FF772D"/>
<path d="M21.0007 21.7274C20.599 21.7274 20.2734 21.4017 20.2734 21.0001V13.0001C20.2735 12.8745 20.306 12.7511 20.3679 12.6419C20.4298 12.5326 20.5189 12.4412 20.6266 12.3766C20.7343 12.312 20.8568 12.2764 20.9824 12.2732C21.1079 12.27 21.2321 12.2994 21.3429 12.3584L28.8429 16.3584C29.1973 16.5474 29.3314 16.988 29.1424 17.3424C28.9534 17.6967 28.5129 17.8309 28.1584 17.6418L21.7279 14.2122V21.0001C21.7279 21.4018 21.4024 21.7274 21.0007 21.7274Z" fill="#FF772D"/>
<path d="M19.5 33.5H16.5C14.567 33.5 13 31.933 13 30V24.5C13 22.8431 14.3431 21.5 16 21.5H20C21.6569 21.5 23 22.8431 23 24.5V30C23 31.933 21.433 33.5 19.5 33.5Z" fill="#F5826E"/>
<path d="M19.5 33.5H16.5C14.567 33.5 13 31.933 13 30V25.5C13 23.8431 14.3431 22.5 16 22.5H20C21.6569 22.5 23 23.8431 23 25.5V30C23 31.933 21.433 33.5 19.5 33.5Z" fill="#FF772D"/>
<path d="M23 35H13C10.7909 35 9 36.7909 9 39H27C27 36.7909 25.2091 35 23 35Z" fill="#463C4B"/>
<path d="M16 33.5H20V35H16V33.5Z" fill="#F0915A"/>
<path d="M21 36H23C24.8639 36 26.4299 37.2747 26.8739 39H27C27 36.7909 25.2091 35 23 35H20C20 35.5523 20.4478 36 21 36ZM13 36H15C15.5522 36 16 35.5523 16 35H13C10.7909 35 9 36.7909 9 39H9.12606C9.57006 37.2747 11.1361 36 13 36Z" fill="#555A6E"/>
<path d="M31.5 33.5H28.5C26.567 33.5 25 31.933 25 30V24.5C25 22.8431 26.3431 21.5 28 21.5H32C33.6569 21.5 35 22.8431 35 24.5V30C35 31.933 33.433 33.5 31.5 33.5Z" fill="#F5826E"/>
<path d="M31.5 33.5H28.5C26.567 33.5 25 31.933 25 30V25.5C25 23.8431 26.3431 22.5 28 22.5H32C33.6569 22.5 35 23.8431 35 25.5V30C35 31.933 33.433 33.5 31.5 33.5Z" fill="#FF772D"/>
<path d="M35 35H25C22.7909 35 21 36.7909 21 39H39C39 36.7909 37.2091 35 35 35Z" fill="#463C4B"/>
<path d="M28 33.5H32V35H28V33.5Z" fill="#F0915A"/>
<path d="M33 36H35C36.8639 36 38.4299 37.2747 38.8739 39H39C39 36.7909 37.2091 35 35 35H32C32 35.5523 32.4478 36 33 36ZM25 36H27C27.5522 36 28 35.5523 28 35H25C22.7909 35 21 36.7909 21 39H21.1261C21.5701 37.2747 23.1361 36 25 36Z" fill="#555A6E"/>
</svg>
